<?xml version="1.0" encoding="UTF-8"?>
<svg version="1.1" xmlns="http://www.w3.org/2000/svg" width="500" height="250">
<path d="M0 0 C8.56528034 0.248269 16.3398727 4.63970906 22.5 10.375 C31.47348384 20.01318635 33.57239401 31.64863255 34.921875 44.34375 C35.98699934 54.29233981 37.22945119 63.86991736 44.5 71.375 C47.8556397 73.61209313 49.7303592 73.79536952 53.6875 74.25 C62.99408867 75.61345139 68.02882031 78.23321413 74.15234375 85.375 C75.52309697 87.40927724 76.07705395 88.97652111 76.5 91.375 C77.65628906 90.92447266 77.65628906 90.92447266 78.8359375 90.46484375 C79.83882813 90.08457031 80.84171875 89.70429688 81.875 89.3125 C82.87273437 88.92964844 83.87046875 88.54679687 84.8984375 88.15234375 C87.5 87.375 87.5 87.375 89.5 88.375 C90.36566558 111.55560065 90.36566558 111.55560065 85.01171875 118.23046875 C83.5 119.375 83.5 119.375 81.625 119.4375 C78.29817501 117.77408751 76.69793488 115.36663358 74.5 112.375 C74.5 111.715 74.5 111.055 74.5 110.375 C73.95472656 110.72433594 73.40945312 111.07367188 72.84765625 111.43359375 C66.14536294 115.47788356 60.29922373 117.34073276 52.5 115.75 C42.89647457 112.86129016 36.40148284 107.6943852 31.625 98.9375 C30.12898952 94.2001335 29.4200925 90.14953158 31.26171875 85.41796875 C33.10666497 81.95413692 35.0705877 79.31833363 38.5 77.375 C39.16 77.375 39.82 77.375 40.5 77.375 C39.63375 76.1375 39.63375 76.1375 38.75 74.875 C32.3595471 65.14254346 29.88517751 55.21063893 28.83764648 43.64746094 C27.8163986 32.43366677 25.55298734 22.49137426 17.5234375 14.05859375 C12.20557129 9.63388268 5.98799926 7.53766642 -0.5 5.375 C-0.5 31.775 -0.5 58.175 -0.5 85.375 C1.15 85.375 2.8 85.375 4.5 85.375 C8.19186299 89.08146727 7.86003582 93.51236604 7.89118958 98.43652344 C7.88197983 99.4887207 7.87277008 100.54091797 7.86328125 101.625 C7.86377975 102.71586914 7.86427826 103.80673828 7.86479187 104.93066406 C7.86245461 107.23374252 7.85274666 109.53682368 7.83618164 111.83984375 C7.81258567 115.36221188 7.81562418 118.88382288 7.82226562 122.40625 C7.81668868 124.64583784 7.8095787 126.8854225 7.80078125 129.125 C7.80214836 130.7032959 7.80214836 130.7032959 7.80354309 132.31347656 C7.79401108 133.29799805 7.78447906 134.28251953 7.7746582 135.296875 C7.77005081 136.15893555 7.76544342 137.02099609 7.76069641 137.90917969 C7.43640921 140.97647919 6.74517797 144.12982203 4.5 146.375 C1.84177343 146.50158222 -0.77887424 146.56020214 -3.4375 146.5625 C-4.17935547 146.57474609 -4.92121094 146.58699219 -5.68554688 146.59960938 C-7.62513629 146.60488478 -9.5642371 146.49688902 -11.5 146.375 C-14.12414755 143.75085245 -13.75298097 142.60518938 -13.75878906 138.94726562 C-13.76509338 137.81268921 -13.77139771 136.67811279 -13.77789307 135.50915527 C-13.7738446 134.27894653 -13.76979614 133.04873779 -13.765625 131.78125 C-13.76753845 130.52364868 -13.7694519 129.26604736 -13.77142334 127.97033691 C-13.77278649 125.30707125 -13.77008006 122.6441707 -13.76074219 119.98095703 C-13.74934752 116.56428606 -13.75590748 113.14792928 -13.76788712 109.73126984 C-13.77684454 106.47708521 -13.77057628 103.22293873 -13.765625 99.96875 C-13.76967346 98.73854126 -13.77372192 97.50833252 -13.77789307 96.24084473 C-13.77158875 95.10626831 -13.76528442 93.97169189 -13.75878906 92.80273438 C-13.75719788 91.80060913 -13.75560669 90.79848389 -13.75396729 89.76599121 C-13.5 87.375 -13.5 87.375 -11.5 85.375 C-8.375 85.25 -8.375 85.25 -5.5 85.375 C-5.50444122 84.3396109 -5.50888245 83.3042218 -5.51345825 82.23745728 C-5.55394213 72.4960061 -5.58395442 62.75457191 -5.60362434 53.0130558 C-5.61407667 48.00443653 -5.62826221 42.99588498 -5.65087891 37.98730469 C-5.67255575 33.15681667 -5.6845577 28.32639394 -5.68975449 23.49586105 C-5.69345954 21.64980415 -5.70069425 19.80375094 -5.71146011 17.95772171 C-5.72590657 15.37879876 -5.72798083 12.80014809 -5.72705078 10.22119141 C-5.73783661 9.06781029 -5.73783661 9.06781029 -5.74884033 7.89112854 C-5.72819308 2.62573821 -5.70321137 0.61105836 0 0 Z M37.0625 85.5 C35.14488273 89.02841577 35.05966585 91.10129841 35.68359375 95.015625 C37.1541068 99.26533735 40.01280166 102.58067295 43.5 105.375 C44.49 105.375 45.48 105.375 46.5 105.375 C50.15189685 97.85039392 51.56087922 90.75198017 51.5 82.375 C51.17 81.715 50.84 81.055 50.5 80.375 C44.87792998 79.878935 41.24409326 81.85450844 37.0625 85.5 Z M55.5 80.375 C55.561875 81.40625 55.62375 82.4375 55.6875 83.5 C55.70304874 92.22284202 53.06636949 101.0836524 50.5 109.375 C56.2637046 110.97530624 62.00070848 111.55202098 67.375 108.5625 C69.70349949 106.93255036 71.67157539 105.52608778 73.5 103.375 C76.76330303 106.54765572 79.68796895 109.79987505 82.5 113.375 C83.00478485 110.95924393 83.50397642 108.54255639 84 106.125 C84.14308594 105.44308594 84.28617188 104.76117188 84.43359375 104.05859375 C85.11251049 100.72866879 85.5 97.79167449 85.5 94.375 C84.200625 94.808125 84.200625 94.808125 82.875 95.25 C78.1875 96.8125 78.1875 96.8125 73.5 98.375 C73.438125 97.529375 73.37625 96.68375 73.3125 95.8125 C72.0255802 90.3678393 69.8133401 86.82265623 65.015625 83.8203125 C60.47607023 81.3082673 60.47607023 81.3082673 55.5 80.375 Z M-9.5 91.375 C-9.59839214 92.9043463 -9.62798539 94.43819566 -9.62939453 95.97070312 C-9.63254669 96.94841675 -9.63569885 97.92613037 -9.63894653 98.93347168 C-9.6369223 99.99698853 -9.63489807 101.06050537 -9.6328125 102.15625 C-9.63376923 103.24006958 -9.63472595 104.32388916 -9.63571167 105.44055176 C-9.63639365 107.7372239 -9.63453811 110.03389795 -9.63037109 112.33056641 C-9.62502312 115.85974428 -9.6303155 119.38879487 -9.63671875 122.91796875 C-9.63605797 125.14322945 -9.63477682 127.36849007 -9.6328125 129.59375 C-9.63483673 130.65726685 -9.63686096 131.72078369 -9.63894653 132.81652832 C-9.63579437 133.79424194 -9.63264221 134.77195557 -9.62939453 135.77929688 C-9.62859894 136.64453979 -9.62780334 137.50978271 -9.62698364 138.40124512 C-9.71795727 140.37712582 -9.71795727 140.37712582 -8.5 141.375 C-6.83570949 141.47323937 -5.16718069 141.50473631 -3.5 141.5 C-2.5925 141.50257813 -1.685 141.50515625 -0.75 141.5078125 C1.46966611 141.62673779 1.46966611 141.62673779 2.5 140.375 C2.59839214 138.8456537 2.62798539 137.31180434 2.62939453 135.77929688 C2.63254669 134.80158325 2.63569885 133.82386963 2.63894653 132.81652832 C2.6369223 131.75301147 2.63489807 130.68949463 2.6328125 129.59375 C2.63376923 128.50993042 2.63472595 127.42611084 2.63571167 126.30944824 C2.63639365 124.0127761 2.63453811 121.71610205 2.63037109 119.41943359 C2.62502312 115.89025572 2.6303155 112.36120513 2.63671875 108.83203125 C2.63605797 106.60677055 2.63477682 104.38150993 2.6328125 102.15625 C2.63584885 100.56097473 2.63584885 100.56097473 2.63894653 98.93347168 C2.63579437 97.95575806 2.63264221 96.97804443 2.62939453 95.97070312 C2.62859894 95.10546021 2.62780334 94.24021729 2.62698364 93.34875488 C2.71795727 91.37287418 2.71795727 91.37287418 1.5 90.375 C-0.16429051 90.27676063 -1.83281931 90.24526369 -3.5 90.25 C-4.4075 90.24742187 -5.315 90.24484375 -6.25 90.2421875 C-8.46966611 90.12326221 -8.46966611 90.12326221 -9.5 91.375 Z " fill="#FFFFFF" transform="translate(35.5,51.625)"/>
<path d="M0 0 C24 0 24 0 31 4 C36.80558888 9.80558888 37.22716114 16.4007992 37.30354309 24.21116638 C37.30263168 25.24362991 37.30172028 26.27609344 37.30078125 27.33984375 C37.30506638 28.42076797 37.3093515 29.5016922 37.31376648 30.6153717 C37.31949136 32.89388328 37.32002368 35.17241312 37.31567383 37.45092773 C37.31251349 40.92268249 37.33599839 44.39358476 37.36132812 47.86523438 C37.36360137 50.08593643 37.3643045 52.30664077 37.36328125 54.52734375 C37.372491 55.55778305 37.38170074 56.58822235 37.39118958 57.64988708 C37.34786996 64.45050613 36.84405443 70.66187821 32.24609375 76.05859375 C31.64925781 76.51363281 31.05242187 76.96867187 30.4375 77.4375 C29.83808594 77.91058594 29.23867188 78.38367188 28.62109375 78.87109375 C19.73806814 85.05710436 15.6472205 81 0 81 C0 54.27 0 27.54 0 0 Z M13 13 C13 31.15 13 49.3 13 68 C18.73344065 68.55204882 18.73344065 68.55204882 21.83789062 66.12109375 C24.8733841 61.73923415 24.68657177 58.27648359 24.59375 53.0625 C24.59379028 52.10480713 24.59383057 51.14711426 24.59387207 50.16040039 C24.58852119 48.13974428 24.57095699 46.1190884 24.54199219 44.09863281 C24.50014119 41.01041886 24.50092523 37.92438723 24.5078125 34.8359375 C24.49731926 32.86977655 24.48438044 30.90362682 24.46875 28.9375 C24.46854858 28.01654541 24.46834717 27.09559082 24.46813965 26.14672852 C24.44513733 19.46443065 24.44513733 19.46443065 21 14 C18.36 13.67 15.72 13.34 13 13 Z " fill="#FFFFFF" transform="translate(265,120)"/>
<path d="M0 0 C4.29 0 8.58 0 13 0 C13.01458252 1.92303955 13.02916504 3.8460791 13.04418945 5.82739258 C13.09581462 12.1778419 13.16109327 18.5280357 13.23571491 24.87825489 C13.28046171 28.72879256 13.31970798 32.57922338 13.34643555 36.42993164 C13.37242607 40.14541565 13.41279735 43.8604894 13.46318626 47.57571983 C13.47988396 48.99385161 13.49138017 50.41205439 13.49761391 51.83027077 C13.50722254 53.8151024 13.53696284 55.79980582 13.56762695 57.78442383 C13.57873001 58.91471512 13.58983307 60.04500641 13.60127258 61.20954895 C14.037154 64.26001828 14.5815778 65.17502859 17 67 C20.72614153 65.88145414 20.72614153 65.88145414 23 63 C23.12027472 60.99902482 23.17737258 58.9941379 23.20532227 56.98974609 C23.22526749 55.72858978 23.24521271 54.46743347 23.26576233 53.1680603 C23.28274665 51.78652063 23.29962546 50.40497966 23.31640625 49.0234375 C23.3369756 47.61381418 23.35797207 46.20419703 23.37937927 44.79458618 C23.43460195 41.08252965 23.48401031 37.37041743 23.53222656 33.65826416 C23.58244018 29.87108397 23.63812697 26.08398474 23.69335938 22.296875 C23.80094336 14.86464995 23.90188203 7.43235715 24 0 C28.29 0 32.58 0 37 0 C37.06800694 8.31951613 37.12294852 16.63881304 37.15543652 24.95853329 C37.1710358 28.82247758 37.19216784 32.68622043 37.22631836 36.55004883 C37.25911834 40.28481058 37.27689607 44.0193796 37.28463173 47.75427437 C37.29013848 49.1731119 37.30089106 50.59193991 37.31719017 52.0106945 C37.51197698 69.6823802 37.51197698 69.6823802 32.24609375 76.15625 C31.64925781 76.5996875 31.05242187 77.043125 30.4375 77.5 C29.53837891 78.19609375 29.53837891 78.19609375 28.62109375 78.90625 C23.66480788 82.2502501 17.76547772 81.47529028 12 81 C6.86506462 79.59304563 3.71021645 76.10717889 1.04092407 71.67285156 C-1.238447 65.81995538 -0.59935549 59.31757386 -0.48828125 53.125 C-0.47894186 51.58944862 -0.47183107 50.05388222 -0.46684265 48.51831055 C-0.44786088 44.50008137 -0.3988389 40.4827731 -0.34332275 36.46490479 C-0.29193782 32.35563612 -0.26928781 28.24621691 -0.24414062 24.13671875 C-0.19070893 16.09067859 -0.10284798 8.04556038 0 0 Z " fill="#FFFFFF" transform="translate(186,120)"/>
<path d="M0 0 C4.8531622 2.62218785 7.79100263 6.07692455 10.04296875 11.03125 C11.01262149 15.23307853 10.92353737 18.9724855 10.79296875 23.28125 C6.50296875 23.28125 2.21296875 23.28125 -2.20703125 23.28125 C-2.6953125 21.23046875 -3.18359375 19.1796875 -3.671875 17.12890625 C-4.04590694 15.28155102 -4.04590694 15.28155102 -5.20703125 14.28125 C-7.66513123 14.0311727 -7.66513123 14.0311727 -10.20703125 14.28125 C-12.40260309 16.06209656 -12.40260309 16.06209656 -12.44754028 18.38198853 C-12.44309906 19.24802704 -12.43865784 20.11406555 -12.43408203 21.00634766 C-12.43393097 21.98721344 -12.43377991 22.96807922 -12.43362427 23.97866821 C-12.4233017 25.04016083 -12.41297913 26.10165344 -12.40234375 27.1953125 C-12.39951385 28.28008881 -12.39668396 29.36486511 -12.39376831 30.48251343 C-12.38254703 33.95720313 -12.35743887 37.43163782 -12.33203125 40.90625 C-12.32200397 43.25780879 -12.31287768 45.6093716 -12.3046875 47.9609375 C-12.28260136 53.73446244 -12.2491047 59.50783801 -12.20703125 65.28125 C-9.81741905 65.92341709 -9.81741905 65.92341709 -7.20703125 66.28125 C-4.78173864 64.85735653 -4.78173864 64.85735653 -3.20703125 62.28125 C-2.51100845 59.0187158 -2.51100845 59.0187158 -2.45703125 55.53125 C-2.4003125 54.36078125 -2.34359375 53.1903125 -2.28515625 51.984375 C-2.259375 51.09234375 -2.23359375 50.2003125 -2.20703125 49.28125 C-3.85703125 49.28125 -5.50703125 49.28125 -7.20703125 49.28125 C-7.20703125 44.99125 -7.20703125 40.70125 -7.20703125 36.28125 C-1.26703125 36.28125 4.67296875 36.28125 10.79296875 36.28125 C10.88535767 40.40795505 10.96481607 44.53198905 11.01269531 48.65917969 C11.03267505 50.05969473 11.05986895 51.46012782 11.09472656 52.86035156 C11.28933729 60.88518232 11.43307248 67.43751278 6.79296875 74.28125 C2.28360285 78.85511824 -1.00818892 80.45411766 -7.39453125 80.59375 C-13.36023536 80.53448804 -16.56467299 80.03464604 -21.20703125 76.28125 C-24.90940709 71.50713379 -26.32530129 67.96518396 -26.36816406 61.98706055 C-26.38257538 60.36473763 -26.38257538 60.36473763 -26.39727783 58.7096405 C-26.40152771 57.54088882 -26.40577759 56.37213715 -26.41015625 55.16796875 C-26.41585632 53.96566116 -26.4215564 52.76335358 -26.4274292 51.52461243 C-26.436882 48.97841269 -26.44341429 46.4322007 -26.44726562 43.88598633 C-26.45696647 39.99473667 -26.48798625 36.10401618 -26.51953125 32.21289062 C-26.5260618 29.73958647 -26.53131206 27.26627854 -26.53515625 24.79296875 C-26.54750305 23.63028976 -26.55984985 22.46761078 -26.5725708 21.2696991 C-26.55405286 14.53777463 -26.27864211 9.54440898 -21.453125 4.41796875 C-20.85628906 3.93972656 -20.25945312 3.46148437 -19.64453125 2.96875 C-19.04511719 2.47761719 -18.44570312 1.98648438 -17.828125 1.48046875 C-12.98987297 -2.09867191 -5.57525525 -1.81565835 0 0 Z " fill="#FFFFFF" transform="translate(160.20703125,120.71875)"/>
<path d="M0 0 C10.89 0 21.78 0 33 0 C33 4.29 33 8.58 33 13 C26.4 13 19.8 13 13 13 C13 19.93 13 26.86 13 34 C17.62 34 22.24 34 27 34 C27 38.29 27 42.58 27 47 C22.38 47 17.76 47 13 47 C13 53.93 13 60.86 13 68 C19.6 68 26.2 68 33 68 C33 72.29 33 76.58 33 81 C22.11 81 11.22 81 0 81 C0 54.27 0 27.54 0 0 Z " fill="#FFFFFF" transform="translate(317,120)"/>
<path d="M0 0 C2.97 0 5.94 0 9 0 C11.24082022 6.45960786 13.07450277 12.92046003 14.6875 19.5625 C15.02491211 20.93245117 15.02491211 20.93245117 15.36914062 22.33007812 C15.91604456 24.55260261 16.45960591 26.77588546 17 29 C17.24234375 28.07960938 17.4846875 27.15921875 17.734375 26.2109375 C20.05579413 17.44311603 22.47628877 8.71217336 25 0 C28.3 0 31.6 0 35 0 C35 16.83 35 33.66 35 51 C32.03 51 29.06 51 26 51 C25.67 47.04 25.34 43.08 25 39 C24.01 42.96 23.02 46.92 22 51 C19.03 51 16.06 51 13 51 C11.53484897 46.66824914 10.10923136 42.43692543 9 38 C8.67 42.29 8.34 46.58 8 51 C5.36 51 2.72 51 0 51 C0 34.17 0 17.34 0 0 Z " fill="#FFFFFF" transform="translate(316,42)"/>
<path d="M0 0 C2.97 0 5.94 0 9 0 C10.65 5.28 12.3 10.56 14 16 C14.33 10.72 14.66 5.44 15 0 C17.64 0 20.28 0 23 0 C23 16.83 23 33.66 23 51 C20.03 51 17.06 51 14 51 C12.68 46.38 11.36 41.76 10 37 C9.67 41.62 9.34 46.24 9 51 C6.03 51 3.06 51 0 51 C0 34.17 0 17.34 0 0 Z " fill="#FFFFFF" transform="translate(399,42)"/>
<path d="M0 0 C4.29 0 8.58 0 13 0 C13 26.73 13 53.46 13 81 C8.71 81 4.42 81 0 81 C0 54.27 0 27.54 0 0 Z " fill="#FFFFFF" transform="translate(237,120)"/>
<path d="M0 0 C6.6 0 13.2 0 20 0 C23.99907211 5.33209615 23.48133241 9.03671118 23.4375 15.5 C23.4674707 17.06814453 23.4674707 17.06814453 23.49804688 18.66796875 C23.49740234 19.67472656 23.49675781 20.68148437 23.49609375 21.71875 C23.49887329 23.09450195 23.49887329 23.09450195 23.50170898 24.49804688 C22.85796628 27.70830244 21.45466218 28.91817864 19 31 C19.3609375 32.19238281 19.721875 33.38476562 20.09375 34.61328125 C20.56271467 36.17962324 21.03145289 37.74603305 21.5 39.3125 C21.73847656 40.09818359 21.97695313 40.88386719 22.22265625 41.69335938 C22.44824219 42.45068359 22.67382812 43.20800781 22.90625 43.98828125 C23.22045898 45.03302612 23.22045898 45.03302612 23.54101562 46.09887695 C24 48 24 48 24 51 C21.03 51 18.06 51 15 51 C13.06606612 45.98935314 11.48598487 41.20094706 10 36 C9.67 40.95 9.34 45.9 9 51 C6.03 51 3.06 51 0 51 C0 34.17 0 17.34 0 0 Z M9 9 C9 12.96 9 16.92 9 21 C10.98 21 12.96 21 15 21 C15 17.04 15 13.08 15 9 C13.02 9 11.04 9 9 9 Z " fill="#FFFFFF" transform="translate(281,42)"/>
<path d="M0 0 C2.64 0 5.28 0 8 0 C8 7.26 8 14.52 8 22 C9.98 22 11.96 22 14 22 C14 14.74 14 7.48 14 0 C16.97 0 19.94 0 23 0 C23 17.16 23 34.32 23 52 C20.03 52 17.06 52 14 52 C14 45.07 14 38.14 14 31 C12.02 31 10.04 31 8 31 C8 37.93 8 44.86 8 52 C5.36 52 2.72 52 0 52 C0 34.84 0 17.68 0 0 Z " fill="#FFFFFF" transform="translate(216,41)"/>
<path d="M0 0 C2.97 0 5.94 0 9 0 C10.92815063 5.2239056 11.95041708 10.46409692 12.9453125 15.921875 C13.12005096 16.8630719 13.29478943 17.8042688 13.474823 18.77398682 C13.84151422 20.75373729 14.20615078 22.73386932 14.56884766 24.71435547 C15.12581914 27.75447112 15.68932887 30.79331983 16.25390625 33.83203125 C16.60975672 35.757742 16.96523846 37.68352093 17.3203125 39.609375 C17.48902863 40.52080261 17.65774475 41.43223022 17.83157349 42.37127686 C17.98528412 43.21265198 18.13899475 44.0540271 18.29736328 44.92089844 C18.43345001 45.66225037 18.56953674 46.40360229 18.70974731 47.16741943 C19 49 19 49 19 51 C16.03 51 13.06 51 10 51 C9.67 48.69 9.34 46.38 9 44 C6.36 44 3.72 44 1 44 C0.67 46.31 0.34 48.62 0 51 C-2.97 51 -5.94 51 -9 51 C-7.41269041 40.0075686 -5.40749004 29.10443514 -3.375 18.1875 C-3.04669518 16.41604894 -2.71856894 14.64456478 -2.390625 12.87304688 C-1.59580466 8.58164747 -0.7985817 4.29070098 0 0 Z M4 27 C3.67 29.64 3.34 32.28 3 35 C4.32 35 5.64 35 7 35 C6.74438677 32.6568787 6.40729228 30.32156597 6 28 C5.34 27.67 4.68 27.34 4 27 Z " fill="#FFFFFF" transform="translate(370,42)"/>
<path d="M0 0 C2.95733901 1.23222459 4.37110863 2.19142538 6.3125 4.6875 C7.34720816 8.167882 7.12078138 11.37655866 7 15 C4.36 15 1.72 15 -1 15 C-1.66 13.35 -2.32 11.7 -3 10 C-4.32 10.33 -5.64 10.66 -7 11 C-5.73010011 14.43708531 -4.26024197 17.31659902 -2.1796875 20.328125 C-1.64472656 21.12863281 -1.10976562 21.92914063 -0.55859375 22.75390625 C0.55903377 24.41089925 1.68920136 26.0595063 2.83203125 27.69921875 C6.4457037 33.16785139 8.15324554 37.40942467 7 44 C5.37599816 47.63467079 4.33886956 48.77408696 1 51 C-3.57098437 51.5965522 -7.73074222 51.52885741 -12 49.75 C-14.2309733 47.79789836 -15.15512207 46.84186214 -16 44 C-16.14979106 41.30892611 -16.09000397 38.70011923 -16 36 C-13.36 36 -10.72 36 -8 36 C-7.34 37.65 -6.68 39.3 -6 41 C-4.02 40.505 -4.02 40.505 -2 40 C-3.26989989 36.56291469 -4.73975803 33.68340098 -6.8203125 30.671875 C-7.35527344 29.87136719 -7.89023438 29.07085937 -8.44140625 28.24609375 C-9.55903377 26.58910075 -10.68920136 24.9404937 -11.83203125 23.30078125 C-15.4457037 17.83214861 -17.15324554 13.59057533 -16 7 C-12.64027917 -0.51937518 -7.46697774 -0.77532516 0 0 Z " fill="#FFFFFF" transform="translate(198,42)"/>
<path d="M0 0 C6.93 0 13.86 0 21 0 C21 2.97 21 5.94 21 9 C16.71 9 12.42 9 8 9 C8 12.96 8 16.92 8 21 C10.97 21 13.94 21 17 21 C17 23.97 17 26.94 17 30 C14.03 30 11.06 30 8 30 C8 33.96 8 37.92 8 42 C12.29 42 16.58 42 21 42 C21 44.97 21 47.94 21 51 C14.07 51 7.14 51 0 51 C0 34.17 0 17.34 0 0 Z " fill="#FFFFFF" transform="translate(250,42)"/>
<path d="M0 0 C7.26 0 14.52 0 22 0 C22 2.97 22 5.94 22 9 C17.71 9 13.42 9 9 9 C9 12.96 9 16.92 9 21 C11.97 21 14.94 21 18 21 C18 23.97 18 26.94 18 30 C15.03 30 12.06 30 9 30 C9 36.93 9 43.86 9 51 C6.03 51 3.06 51 0 51 C0 34.17 0 17.34 0 0 Z " fill="#FFFFFF" transform="translate(130,42)"/>
<path d="M0 0 C2.97 0 5.94 0 9 0 C9 16.83 9 33.66 9 51 C6.03 51 3.06 51 0 51 C0 34.17 0 17.34 0 0 Z " fill="#FFFFFF" transform="translate(162,42)"/>
<path d="M0 0 C2.125 0.9375 2.125 0.9375 4 2 C3.34 3.65 2.68 5.3 2 7 C0.68 6.34 -0.64 5.68 -2 5 C-2 3.68 -2 2.36 -2 1 C-1.34 0.67 -0.68 0.34 0 0 Z " fill="#FFFFFF" transform="translate(77,137)"/>
</svg>
